<svg class="svg-icon" style="width: 1em; height: 1em;vertical-align: middle;fill: currentColor;overflow: hidden;" viewBox="0 0 1024 1024" version="1.1" xmlns="http://www.w3.org/2000/svg"><path d="M383.9 255.8h256.2v-64H383.9v64zM960.3 576v240.1c0 22-7.8 40.9-23.5 56.5-15.7 15.7-34.5 23.5-56.5 23.5H143.8c-22 0-40.9-7.8-56.5-23.5-15.7-15.7-23.5-34.5-23.5-56.5V576H400v80c0 8.7 3.2 16.2 9.5 22.5s13.8 9.5 22.5 9.5h160c8.7 0 16.2-3.2 22.5-9.5 6.4-6.3 9.5-13.8 9.5-22.5v-80h336.3zM576 576v64H448v-64h128z m384.3-240.1V528H63.7V335.9c0-22 7.8-40.9 23.5-56.5s34.5-23.5 56.5-23.5h176.1v-80c0-13.3 4.7-24.7 14-34s20.7-14 34-14H656c13.3 0 24.7 4.7 34 14s14 20.7 14 34v80h176.1c22 0 40.9 7.8 56.5 23.5s23.7 34.5 23.7 56.5z"  /></svg>