<svg class="svg-icon" style="width: 1em; height: 1em;vertical-align: middle;fill: currentColor;overflow: hidden;" viewBox="0 0 1024 1024" version="1.1" xmlns="http://www.w3.org/2000/svg"><path d="M320 225.92L65.92 873.92c-29.76 76.16 8 114.24 84.16 84.16l132.48-51.84a96 96 0 1 1 165.44-64L798.08 704C717.12 580.16 443.84 306.88 320 225.92zM466.24 608a96 96 0 1 1 0-135.68 96 96 0 0 1 0 135.68z m515.52-55.68C896 412.16 611.84 128 472.64 42.24a64 64 0 0 0-93.76 32l-24.32 62.08c60.8 35.2 151.04 106.88 288 244.48s208.96 227.84 244.16 288l62.08-24.32a64 64 0 0 0 32.96-93.12z" fill="#231F20" /></svg>