<svg class="svg-icon" style="width: 1em; height: 1em;vertical-align: middle;fill: currentColor;overflow: hidden;" viewBox="0 0 1024 1024" version="1.1" xmlns="http://www.w3.org/2000/svg"><path d="M901.397257 454.780721c0-215.90609-175.654134-391.566997-391.566997-391.566998-15.432024 0-27.969555 12.530758-27.969555 27.969555s12.537531 27.969555 27.969555 27.969555c185.048816 0 335.627887 150.558751 335.627887 335.627888S694.881334 790.408608 509.832518 790.408608c-58.695877 0-110.864471-1.855907-154.893717-24.799612-13.670944-7.11431-30.577307-1.831071-37.720968 11.882771-7.141403 13.684491-1.815267 30.590854 11.882771 37.718711 39.195308 20.43078 80.492622 27.450262 124.795061 29.854813v57.221537h-83.906407c-15.432024 0-27.969555 12.537531-27.969555 27.969555s12.537531 27.969555 27.969555 27.969555h223.751925c15.432024 0 27.969555-12.537531 27.969555-27.969555s-12.537531-27.969555-27.969555-27.969555H509.832518v-55.936852c215.910605-0.004516 391.56474-175.663165 391.564739-391.569255z" fill="#040000" /><path d="M803.506072 454.780721c0-161.94255-131.74681-293.675812-293.673554-293.675813S216.158963 292.838171 216.158963 454.780721c0 161.940292 131.74681 293.673555 293.673555 293.673554s293.673555-131.733263 293.673554-293.673554z m-531.410257 0c0-131.092049 106.644653-237.736702 237.736703-237.736703s237.736702 106.644653 237.736702 237.736703c0 131.089791-106.644653 237.734445-237.736702 237.734444s-237.736702-106.644653-237.736703-237.734444z" fill="#040000" /></svg>