<svg class="svg-icon" style="width: 1em; height: 1em;vertical-align: middle;fill: currentColor;overflow: hidden;" viewBox="0 0 1024 1024" version="1.1" xmlns="http://www.w3.org/2000/svg"><path d="M945.334 364.218l14.286-80c2.626-14.71-8.684-28.218-23.626-28.218h-149.62l29.246-163.782C818.246 77.508 806.936 64 791.994 64h-81.264a24 24 0 0 0-23.626 19.782L656.35 256H459.08l29.246-163.782C490.954 77.508 479.644 64 464.7 64h-81.264a24 24 0 0 0-23.626 19.782L329.056 256H170.864a24 24 0 0 0-23.626 19.782l-14.286 80C130.326 370.492 141.636 384 156.578 384h149.62L260.484 640H102.292a24 24 0 0 0-23.626 19.782l-14.286 80C61.754 754.492 73.064 768 88.006 768h149.62L208.38 931.782C205.754 946.492 217.064 960 232.006 960h81.264a24 24 0 0 0 23.626-19.782L367.652 768h197.268l-29.246 163.782C533.046 946.492 544.356 960 559.3 960h81.264a24 24 0 0 0 23.626-19.782L694.944 768h158.192a24 24 0 0 0 23.626-19.782l14.286-80c2.626-14.71-8.684-28.218-23.626-28.218h-149.62l45.714-256h158.192a24 24 0 0 0 23.626-19.782zM587.778 640h-197.268l45.714-256h197.268l-45.714 256z" fill="" /></svg>